<svg width="311" height="269" viewBox="0 0 311 269" fill="none" xmlns="http://www.w3.org/2000/svg">
<path d="M194.712 148.207L205.052 165.009L221.854 161.131L237.364 175.349L243.826 165.009H258.044V230.925L233.486 251.605L176.617 192.151L194.712 148.207Z" fill="#E63333"/>
<path d="M220.565 265.822L206.348 254.19L193.423 264.53L177.913 251.605L150.77 251.605L124.921 210.246L148.185 202.491L172.743 194.736L232.198 255.483L220.565 265.822Z" fill="#E63333"/>
<path d="M114.946 210.246L111.993 183.104L118.457 163.716L124.919 144.329L130.089 128.819L168.863 88.7526L189.543 119.772L190.836 146.914L172.74 190.858L114.946 210.246Z" fill="#E63333"/>
<path d="M13.7721 185.689L27.9894 121.065L13.7698 101.678L40.9119 73.2429L52.5418 49.9782L84.8536 39.6384L90.0235 7.32639L127.505 37.0535L154.648 37.0535C153.773 39.5429 153.474 40.9623 153.356 43.5159C153.397 44.9751 152.649 46.149 153.356 48.6858C153.501 50.2618 153.834 51.1112 154.648 52.5632C155.985 53.3646 156.88 53.5898 158.526 53.8557C160.773 53.7746 163.1 53.2152 163.696 51.2707C164.427 50.3206 164.697 47.16 164.988 46.1008C164.684 42.2209 164.988 40.9309 164.988 40.9309C164.988 38.3459 164.988 39.6384 164.988 38.3459C164.988 37.6239 165.746 37.3959 166.281 37.0535L174.036 37.0535L167.572 83.5828L127.506 126.235L113.289 167.594L80.9762 154.669L83.5633 202.491L66.761 230.925L13.7721 185.689Z" fill="#E63333"/>
<path d="M154.652 51.2705C154.185 43.1325 154.755 38.914 157.237 31.8833C161.642 26.5741 164.508 23.7294 170.162 18.9585C176.043 15.8321 179.495 15.14 185.671 15.0811C191.504 15.5234 194.395 16.37 199.889 18.9585L208.936 26.7134C211.529 32.4738 212.771 35.8699 214.106 42.2232C211.521 47.3931 206.351 47.3931 205.059 42.2232C203.664 35.3448 202.334 32.3782 198.596 29.2983C194.433 25.4364 191.87 23.7475 185.671 24.1284C179.219 23.1984 175.496 26.5074 168.869 31.8833C163.856 36.7776 162.628 41.266 162.407 51.2705C159.31 52.2126 157.748 52.2253 154.652 51.2705Z" fill="#E63333"/>
<path d="M252.877 34.4678L308.453 91.3379C310.433 94.8201 310.133 96.8212 309.746 100.385L265.802 144.329C261.32 144.97 259.246 144.657 255.462 143.037L198.593 86.168C193.932 66.7612 191.054 55.1037 190.838 48.6855C194.424 43.586 196.669 40.7535 201.178 35.7607C203.432 46.1035 206.824 49.0411 210.225 47.3926C212.849 47.3331 214.172 46.4982 215.395 43.5156C214.337 37.0247 213.416 33.5369 210.225 28.0059C212.254 26.2414 214.869 25.5463 217.979 25.4209L252.877 34.4678ZM248.936 61.3984C245.687 61.8941 244.029 62.5327 241.181 63.9834L256.756 113.31C260.313 113.173 262.271 113.546 264.445 110.513L248.936 61.3984ZM237.369 84.875C231.659 84.8752 227.029 89.5044 227.029 95.2148C227.029 100.925 231.659 105.554 237.369 105.555C243.079 105.554 247.709 100.925 247.709 95.2148C247.709 89.5045 243.079 84.8753 237.369 84.875ZM268.387 71.9502C262.676 71.9505 258.047 76.5797 258.047 82.29C258.047 88.0004 262.676 92.6296 268.387 92.6299C274.097 92.6297 278.727 88.0004 278.728 82.29C278.728 76.5796 274.097 71.9503 268.387 71.9502Z" fill="#E63333"/>
</svg>
