<svg width="593" height="315" viewBox="0 0 593 315" fill="none" xmlns="http://www.w3.org/2000/svg">
<path d="M0 0H593V315H0V0Z" fill="black"/>
<rect x="48.5" y="47.5" width="209" height="217" fill="white"/>
<path d="M301.983 93.6152L318.735 130.193H309.513L298.858 103.502L301.983 93.6152ZM290.969 126.76C290.695 127.443 290.644 128.024 290.815 128.502C290.986 128.98 291.276 129.356 291.686 129.629C292.096 129.868 292.505 129.988 292.915 129.988H293.376V130.5H282.413V129.988C282.413 129.988 282.499 129.988 282.669 129.988C282.806 129.988 282.874 129.988 282.874 129.988C283.66 129.988 284.462 129.749 285.282 129.271C286.136 128.758 286.836 127.921 287.383 126.76H290.969ZM301.983 93.6152L302.188 99.8652L289.483 130.346H285.743L299.011 100.326C299.114 100.121 299.285 99.7456 299.524 99.1992C299.797 98.6186 300.07 97.9697 300.343 97.2525C300.651 96.5353 300.924 95.8522 301.163 95.2033C301.402 94.5203 301.522 93.9909 301.522 93.6152H301.983ZM307.362 118.308V120.459H292.301V118.308H307.362ZM308.13 126.76H317.095C317.676 127.921 318.376 128.758 319.196 129.271C320.015 129.749 320.818 129.988 321.603 129.988C321.603 129.988 321.672 129.988 321.808 129.988C321.945 129.988 322.013 129.988 322.013 129.988V130.5H305.722V129.988H306.184C306.867 129.988 307.464 129.714 307.977 129.168C308.489 128.587 308.54 127.785 308.13 126.76ZM331.89 99.7627H337.423C338.823 99.7627 340.189 99.9164 341.521 100.224C342.853 100.497 344.048 100.958 345.107 101.607C346.166 102.222 347.002 103.075 347.617 104.168C348.266 105.227 348.591 106.559 348.591 108.164C348.591 109.36 348.334 110.555 347.822 111.75C347.344 112.911 346.576 113.919 345.517 114.773C344.492 115.627 343.143 116.19 341.47 116.463C342.46 116.771 343.399 117.368 344.287 118.256C345.209 119.144 345.927 119.981 346.439 120.767C346.576 121.04 346.815 121.484 347.156 122.098C347.498 122.679 347.925 123.362 348.437 124.148C348.983 124.899 349.547 125.684 350.127 126.504C350.811 127.426 351.408 128.143 351.92 128.656C352.433 129.134 352.962 129.475 353.509 129.68C354.055 129.885 354.687 129.988 355.404 129.988V130.5H351.101C349.257 130.5 347.686 130.363 346.388 130.09C345.124 129.817 344.014 129.322 343.058 128.605C342.136 127.853 341.282 126.846 340.496 125.582C340.189 125.138 339.865 124.609 339.523 123.994C339.182 123.345 338.84 122.696 338.499 122.047C338.157 121.398 337.85 120.767 337.576 120.152C337.337 119.537 337.167 119.025 337.064 118.615C336.62 117.522 336.108 116.737 335.527 116.258C334.981 115.746 334.469 115.49 333.99 115.49V115.029C333.99 115.029 334.11 115.029 334.349 115.029C334.588 115.029 334.895 115.029 335.271 115.029C335.988 115.029 336.688 114.909 337.371 114.67C338.089 114.397 338.738 113.902 339.318 113.185C339.899 112.433 340.326 111.34 340.599 109.906C340.667 109.701 340.718 109.411 340.753 109.035C340.821 108.659 340.838 108.233 340.804 107.754C340.735 106.491 340.496 105.483 340.087 104.732C339.711 103.946 339.233 103.366 338.652 102.99C338.072 102.58 337.474 102.307 336.859 102.17C336.279 102 335.766 101.914 335.322 101.914C334.673 101.88 334.076 101.88 333.529 101.914C333.017 101.914 332.624 101.897 332.351 101.863C332.317 101.863 332.266 101.692 332.197 101.351C332.129 100.975 332.061 100.617 331.992 100.275C331.924 99.9335 331.89 99.7627 331.89 99.7627ZM332.402 99.7627V130.5H324.974V99.7627H332.402ZM325.128 127.273L325.333 130.5H321.644V129.988C321.678 129.988 321.764 129.988 321.9 129.988C322.071 129.988 322.191 129.988 322.259 129.988C323.01 129.988 323.642 129.732 324.154 129.219C324.701 128.673 324.991 128.024 325.025 127.273H325.128ZM325.128 102.939H325.025C324.991 102.153 324.701 101.522 324.154 101.043C323.642 100.531 323.027 100.275 322.31 100.275C322.208 100.275 322.071 100.275 321.9 100.275C321.764 100.275 321.678 100.275 321.644 100.275V99.7627H325.333L325.128 102.939ZM332.3 127.273H332.402C332.402 128.126 332.693 128.792 333.273 129.271C333.888 129.749 334.537 129.988 335.22 129.988C335.22 129.988 335.288 129.988 335.425 129.988C335.561 129.988 335.664 129.988 335.732 129.988V130.5H332.044L332.3 127.273ZM364.943 99.7627V130.5H357.566V99.7627H364.943ZM357.72 127.273V130.5H353.98V129.988C353.98 129.988 354.082 129.988 354.287 129.988C354.492 129.988 354.612 129.988 354.646 129.988C355.431 129.988 356.115 129.732 356.695 129.219C357.276 128.673 357.566 128.024 357.566 127.273H357.72ZM364.841 127.273H364.943C364.977 128.024 365.267 128.673 365.814 129.219C366.394 129.732 367.095 129.988 367.914 129.988C367.914 129.988 368 129.988 368.17 129.988C368.375 129.988 368.495 129.988 368.529 129.988V130.5H364.841V127.273ZM364.841 102.99V99.7627H368.529L368.478 100.275C368.478 100.275 368.392 100.275 368.222 100.275C368.051 100.275 367.948 100.275 367.914 100.275C367.095 100.275 366.394 100.531 365.814 101.043C365.267 101.556 364.977 102.205 364.943 102.99H364.841ZM357.72 102.99H357.566C357.566 102.205 357.276 101.556 356.695 101.043C356.115 100.531 355.414 100.275 354.595 100.275C354.595 100.275 354.492 100.275 354.287 100.275C354.082 100.275 353.98 100.275 353.98 100.275V99.7627H357.72V102.99ZM385.566 98.3795L400.73 130.244H392.072L382.543 107.754L385.566 98.3795ZM375.935 127.119C375.559 128.041 375.61 128.758 376.088 129.271C376.567 129.749 377.096 129.988 377.677 129.988H378.086V130.5H367.841V129.988C367.841 129.988 367.909 129.988 368.046 129.988C368.182 129.988 368.25 129.988 368.25 129.988C368.934 129.988 369.651 129.783 370.402 129.373C371.153 128.929 371.768 128.178 372.246 127.119H375.935ZM385.566 98.3795L385.668 104.527L374.552 130.346H370.761L382.748 104.578C382.817 104.373 382.97 104.015 383.209 103.502C383.448 102.956 383.704 102.358 383.978 101.709C384.251 101.026 384.507 100.395 384.746 99.8139C384.985 99.1992 385.122 98.721 385.156 98.3795H385.566ZM390.023 120.459V122.457H376.959V120.459H390.023ZM390.791 127.119H399.244C399.756 128.178 400.388 128.929 401.139 129.373C401.891 129.783 402.608 129.988 403.291 129.988C403.291 129.988 403.359 129.988 403.496 129.988C403.633 129.988 403.701 129.988 403.701 129.988V130.5H388.64V129.988H389.049C389.63 129.988 390.159 129.749 390.637 129.271C391.116 128.758 391.167 128.041 390.791 127.119ZM413.961 99.0967C414.644 99.0967 415.463 99.1309 416.42 99.1992C417.41 99.2675 418.383 99.3529 419.34 99.4553C420.296 99.5236 421.133 99.6261 421.85 99.7627C422.601 99.8652 423.113 99.9676 423.387 100.07L422.721 106.32H422.26C422.26 104.749 421.713 103.502 420.62 102.58C419.527 101.658 417.956 101.197 415.907 101.197C414.268 101.197 412.936 101.556 411.911 102.273C410.921 102.99 410.392 103.946 410.323 105.142C410.255 105.756 410.357 106.32 410.631 106.832C410.938 107.31 411.348 107.737 411.86 108.113C412.407 108.489 413.004 108.864 413.653 109.24L421.696 114.209C423.062 114.892 424.138 115.883 424.924 117.181C425.709 118.478 426.051 120.049 425.948 121.894C425.846 123.806 425.282 125.462 424.258 126.863C423.267 128.263 421.884 129.339 420.108 130.09C418.366 130.807 416.3 131.166 413.909 131.166C412.441 131.166 411.075 131.046 409.811 130.807C408.547 130.568 407.455 130.244 406.532 129.834C405.644 129.424 404.961 128.963 404.483 128.451C404.21 127.768 404.09 126.948 404.125 125.992C404.159 125.001 404.312 124.028 404.586 123.072C404.859 122.081 405.2 121.262 405.61 120.613H406.02C405.918 122.15 406.191 123.567 406.84 124.865C407.523 126.163 408.513 127.204 409.811 127.99C411.109 128.741 412.663 129.117 414.473 129.117C416.454 129.117 417.939 128.656 418.93 127.734C419.92 126.812 420.415 125.736 420.415 124.506C420.415 123.584 420.108 122.764 419.493 122.047C418.913 121.296 417.939 120.562 416.573 119.844L409.299 115.234C407.591 114.346 406.345 113.168 405.559 111.699C404.808 110.23 404.534 108.625 404.739 106.884C404.91 105.244 405.388 103.844 406.174 102.683C406.993 101.522 408.069 100.634 409.401 100.019C410.733 99.4041 412.253 99.0967 413.961 99.0967ZM423.387 99.5578L423.335 100.48H417.854V99.5578H423.387ZM475.878 115.541L476.339 124.353C475.588 125.616 474.58 126.76 473.317 127.785C472.053 128.809 470.482 129.646 468.604 130.295C466.725 130.91 464.505 131.217 461.944 131.217C457.777 131.183 454.123 130.432 450.981 128.963C447.873 127.46 445.465 125.326 443.758 122.56C442.05 119.793 441.196 116.446 441.196 112.519C441.196 108.694 442.033 105.398 443.707 102.632C445.38 99.831 447.771 97.6794 450.879 96.1767C454.021 94.674 457.76 93.9226 462.098 93.9226C464.83 93.9226 467.272 94.1958 469.423 94.7423C471.609 95.2887 473.436 95.9547 474.905 96.7402L474.956 105.5H474.495C473.573 102.119 472.07 99.7115 469.987 98.2771C467.904 96.8085 465.462 96.0742 462.661 96.0742C459.929 96.0742 457.59 96.7402 455.643 98.0721C453.696 99.4041 452.193 101.282 451.135 103.707C450.076 106.132 449.547 109.035 449.547 112.416C449.547 115.797 450.042 118.717 451.032 121.176C452.057 123.635 453.491 125.548 455.335 126.914C457.214 128.28 459.417 128.997 461.944 129.066C464.574 129.066 466.794 128.639 468.604 127.785C470.414 126.931 471.865 125.514 472.958 123.533C474.085 121.552 474.922 118.888 475.468 115.541H475.878ZM494.181 98.3795L509.345 130.244H500.687L491.158 107.754L494.181 98.3795ZM484.55 127.119C484.174 128.041 484.225 128.758 484.704 129.271C485.182 129.749 485.711 129.988 486.292 129.988H486.702V130.5H476.456V129.988C476.456 129.988 476.524 129.988 476.661 129.988C476.797 129.988 476.866 129.988 476.866 129.988C477.549 129.988 478.266 129.783 479.017 129.373C479.769 128.929 480.383 128.178 480.861 127.119H484.55ZM494.181 98.3795L494.283 104.527L483.167 130.346H479.376L491.363 104.578C491.432 104.373 491.585 104.015 491.824 103.502C492.063 102.956 492.32 102.358 492.593 101.709C492.866 101.026 493.122 100.395 493.361 99.8139C493.6 99.1992 493.737 98.721 493.771 98.3795H494.181ZM498.638 120.459V122.457H485.574V120.459H498.638ZM499.406 127.119H507.859C508.371 128.178 509.003 128.929 509.754 129.373C510.506 129.783 511.223 129.988 511.906 129.988C511.906 129.988 511.974 129.988 512.111 129.988C512.248 129.988 512.316 129.988 512.316 129.988V130.5H497.255V129.988H497.664C498.245 129.988 498.774 129.749 499.253 129.271C499.731 128.758 499.782 128.041 499.406 127.119ZM493.105 96.2279C493.686 95.2375 494.403 94.2129 495.257 93.1542C496.111 92.0954 496.999 91.105 497.921 90.1829C498.877 89.2608 499.714 88.4582 500.431 87.7752C501.353 88.2874 502.087 88.8851 502.634 89.5682C503.18 90.2512 503.624 91.0538 503.966 91.9759C502.941 92.6248 501.814 93.2566 500.585 93.8714C499.389 94.452 498.177 94.9813 496.947 95.4595C495.752 95.9376 494.591 96.3133 493.464 96.5865L493.105 96.2279ZM519.866 99.7627V119.076C519.866 122.218 520.583 124.677 522.017 126.453C523.486 128.229 525.518 129.117 528.114 129.117C530.812 129.117 532.895 128.28 534.364 126.607C535.866 124.933 536.635 122.611 536.669 119.639V99.7627H540.05V119.332C540.05 122.986 538.923 125.872 536.669 127.99C534.449 130.107 531.29 131.166 527.192 131.166C522.239 131.166 518.551 130.124 516.126 128.041C513.701 125.924 512.489 123.038 512.489 119.383V99.7627H519.866ZM512.591 99.7627V102.427H512.489C512.455 101.778 512.216 101.248 511.772 100.839C511.328 100.429 510.781 100.224 510.132 100.224C510.132 100.224 510.013 100.224 509.774 100.224C509.535 100.224 509.415 100.224 509.415 100.224V99.7627H512.591ZM522.888 99.7627V100.224C522.888 100.224 522.769 100.224 522.53 100.224C522.291 100.224 522.171 100.224 522.171 100.224C521.522 100.224 520.976 100.429 520.532 100.839C520.088 101.248 519.866 101.778 519.866 102.427H519.763V99.7627H522.888ZM536.771 99.7627V102.427H536.669C536.635 101.778 536.396 101.248 535.952 100.839C535.508 100.429 534.978 100.224 534.364 100.224C534.364 100.224 534.244 100.224 534.005 100.224C533.766 100.224 533.646 100.224 533.646 100.224V99.7627H536.771ZM543.072 99.7627V100.224C543.072 100.224 542.953 100.224 542.714 100.224C542.509 100.224 542.406 100.224 542.406 100.224C541.758 100.224 541.194 100.429 540.716 100.839C540.272 101.248 540.05 101.778 540.05 102.427H539.947V99.7627H543.072Z" fill="white"/>
<path d="M295.429 136.923C296.795 136.923 298.127 137.059 299.425 137.332C300.757 137.606 301.969 138.015 303.062 138.562C304.155 139.074 304.992 139.74 305.572 140.56L303.728 147.886H303.267C303.267 146.349 303.045 144.914 302.601 143.582C302.157 142.25 301.457 141.175 300.501 140.355C299.579 139.501 298.332 139.074 296.761 139.074C295.053 139.074 293.653 139.638 292.56 140.765C291.502 141.892 290.972 143.326 290.972 145.068C290.972 147.049 291.706 148.944 293.175 150.754C294.678 152.53 296.829 154.648 299.63 157.107C300.347 157.722 301.15 158.439 302.038 159.258C302.96 160.078 303.865 160.864 304.753 161.615C305.675 162.366 306.443 163.015 307.058 163.562C308.902 165.133 310.576 166.567 312.078 167.865C313.581 169.163 314.964 170.256 316.228 171.143C317.492 171.997 318.687 172.595 319.814 172.936V173.5C318.482 173.637 316.945 173.722 315.203 173.756C313.462 173.824 311.669 173.654 309.824 173.244C307.98 172.834 306.187 172.014 304.445 170.785C303.557 170.136 302.601 169.402 301.577 168.582C300.552 167.762 299.527 166.943 298.503 166.123C297.512 165.269 296.59 164.484 295.736 163.767C294.917 163.049 294.251 162.469 293.739 162.025C291.758 160.317 289.948 158.627 288.308 156.953C286.703 155.28 285.422 153.555 284.466 151.779C283.51 150.003 283.032 148.09 283.032 146.041C283.032 144.47 283.373 143.121 284.056 141.994C284.739 140.833 285.661 139.877 286.823 139.125C288.018 138.374 289.35 137.828 290.819 137.486C292.321 137.11 293.858 136.923 295.429 136.923ZM312.642 155.775C312.71 157.619 312.591 159.429 312.283 161.205C311.976 162.947 311.43 164.586 310.644 166.123C309.893 167.66 308.851 169.026 307.519 170.221C306.221 171.417 304.582 172.356 302.601 173.039C300.654 173.688 298.315 174.012 295.583 174.012C294.046 174.012 292.441 173.893 290.767 173.654C289.094 173.415 287.489 173.039 285.952 172.527C284.415 171.98 283.015 171.263 281.751 170.375C280.522 169.453 279.548 168.343 278.831 167.045C278.114 165.747 277.755 164.211 277.755 162.435C277.755 161.034 277.994 159.822 278.472 158.797C278.951 157.739 279.582 156.834 280.368 156.082C281.188 155.297 282.058 154.665 282.981 154.187C283.903 153.709 284.808 153.333 285.696 153.06C286.618 152.786 287.42 152.633 288.103 152.599L289.077 153.572C288.804 153.845 288.479 154.187 288.103 154.597C287.728 155.006 287.352 155.519 286.976 156.133C286.601 156.748 286.293 157.5 286.054 158.387C285.849 159.241 285.781 160.249 285.849 161.41C285.918 163.118 286.293 164.637 286.976 165.969C287.659 167.267 288.53 168.36 289.589 169.248C290.682 170.102 291.911 170.751 293.278 171.195C294.644 171.639 296.061 171.861 297.53 171.861C299.34 171.861 300.911 171.485 302.243 170.734C303.609 169.948 304.736 168.941 305.624 167.711C306.512 166.482 307.161 165.133 307.57 163.664C307.98 162.196 308.151 160.744 308.083 159.31C308.014 157.875 307.707 156.577 307.161 155.416C306.785 154.597 306.324 153.999 305.777 153.623C305.265 153.248 304.667 153.06 303.984 153.06H303.216V152.547H315.203V153.06H314.486C313.701 153.06 313.188 153.316 312.949 153.828C312.744 154.306 312.642 154.955 312.642 155.775ZM345.296 147.58L357.068 173.284H350.588L343.1 154.528L345.296 147.58ZM337.556 170.872C337.364 171.352 337.328 171.76 337.448 172.096C337.568 172.432 337.772 172.696 338.06 172.888C338.348 173.056 338.636 173.14 338.924 173.14H339.248V173.5H331.544V173.14C331.544 173.14 331.604 173.14 331.724 173.14C331.82 173.14 331.868 173.14 331.868 173.14C332.42 173.14 332.984 172.972 333.56 172.636C334.16 172.276 334.652 171.688 335.036 170.872H337.556ZM345.296 147.58L345.44 151.972L336.512 173.392H333.884L343.208 152.296C343.28 152.152 343.4 151.888 343.568 151.504C343.76 151.096 343.952 150.64 344.144 150.136C344.36 149.632 344.552 149.152 344.72 148.696C344.888 148.216 344.972 147.844 344.972 147.58H345.296ZM349.076 164.932V166.444H338.492V164.932H349.076ZM349.616 170.872H355.916C356.324 171.688 356.816 172.276 357.392 172.636C357.968 172.972 358.532 173.14 359.084 173.14C359.084 173.14 359.132 173.14 359.228 173.14C359.324 173.14 359.372 173.14 359.372 173.14V173.5H347.924V173.14H348.248C348.728 173.14 349.148 172.948 349.508 172.564C349.868 172.156 349.904 171.592 349.616 170.872ZM367.644 151.432C368.124 151.432 368.7 151.456 369.372 151.504C370.068 151.552 370.752 151.612 371.424 151.684C372.096 151.732 372.684 151.804 373.188 151.9C373.716 151.972 374.076 152.044 374.268 152.116L373.8 156.508H373.476C373.476 155.404 373.092 154.528 372.324 153.88C371.556 153.232 370.452 152.908 369.012 152.908C367.86 152.908 366.924 153.16 366.204 153.664C365.508 154.168 365.136 154.84 365.088 155.68C365.04 156.112 365.112 156.508 365.304 156.868C365.52 157.204 365.808 157.504 366.168 157.768C366.552 158.032 366.972 158.296 367.428 158.56L373.08 162.052C374.04 162.532 374.796 163.228 375.348 164.14C375.9 165.052 376.14 166.156 376.068 167.452C375.996 168.796 375.6 169.96 374.88 170.944C374.184 171.928 373.212 172.684 371.964 173.212C370.74 173.716 369.288 173.968 367.608 173.968C366.576 173.968 365.616 173.884 364.728 173.716C363.84 173.548 363.072 173.32 362.424 173.032C361.8 172.744 361.32 172.42 360.984 172.06C360.792 171.58 360.708 171.004 360.732 170.332C360.756 169.636 360.864 168.952 361.056 168.28C361.248 167.584 361.488 167.008 361.776 166.552H362.064C361.992 167.632 362.184 168.628 362.64 169.54C363.12 170.452 363.816 171.184 364.728 171.736C365.64 172.264 366.732 172.528 368.004 172.528C369.396 172.528 370.44 172.204 371.136 171.556C371.832 170.908 372.18 170.152 372.18 169.288C372.18 168.64 371.964 168.064 371.532 167.56C371.124 167.032 370.44 166.516 369.48 166.012L364.368 162.772C363.168 162.148 362.292 161.32 361.74 160.288C361.212 159.256 361.02 158.128 361.164 156.904C361.284 155.752 361.62 154.768 362.172 153.952C362.748 153.136 363.504 152.512 364.44 152.08C365.376 151.648 366.444 151.432 367.644 151.432ZM374.268 151.756L374.232 152.404H370.38V151.756H374.268ZM392.503 151.432C394.423 151.432 396.163 151.696 397.723 152.224C399.283 152.728 400.627 153.472 401.755 154.456C402.883 155.44 403.747 156.628 404.347 158.02C404.971 159.412 405.283 160.984 405.283 162.736C405.283 164.464 404.971 166.024 404.347 167.416C403.747 168.784 402.883 169.96 401.755 170.944C400.627 171.928 399.283 172.684 397.723 173.212C396.163 173.716 394.423 173.968 392.503 173.968C390.607 173.968 388.879 173.716 387.319 173.212C385.759 172.684 384.415 171.928 383.287 170.944C382.159 169.96 381.295 168.784 380.695 167.416C380.095 166.024 379.795 164.464 379.795 162.736C379.795 160.984 380.095 159.412 380.695 158.02C381.295 156.628 382.159 155.44 383.287 154.456C384.415 153.472 385.759 152.728 387.319 152.224C388.879 151.696 390.607 151.432 392.503 151.432ZM392.503 172.564C393.967 172.564 395.239 172.168 396.319 171.376C397.423 170.56 398.263 169.42 398.839 167.956C399.439 166.492 399.739 164.752 399.739 162.736C399.739 160.696 399.439 158.944 398.839 157.48C398.263 155.992 397.423 154.852 396.319 154.06C395.239 153.244 393.967 152.836 392.503 152.836C391.063 152.836 389.803 153.244 388.723 154.06C387.643 154.852 386.803 155.992 386.203 157.48C385.603 158.944 385.303 160.696 385.303 162.736C385.303 164.752 385.603 166.492 386.203 167.956C386.803 169.42 387.643 170.56 388.723 171.376C389.803 172.168 391.063 172.564 392.503 172.564ZM430.485 164.464L430.881 169.9C430.425 170.668 429.789 171.364 428.973 171.988C428.157 172.588 427.161 173.068 425.985 173.428C424.809 173.788 423.441 173.968 421.881 173.968C419.193 173.944 416.877 173.488 414.933 172.6C412.989 171.712 411.489 170.44 410.433 168.784C409.401 167.104 408.885 165.064 408.885 162.664C408.885 160.312 409.401 158.308 410.433 156.652C411.465 154.972 412.953 153.688 414.897 152.8C416.841 151.888 419.169 151.432 421.881 151.432C423.513 151.432 425.025 151.588 426.417 151.9C427.833 152.212 429.009 152.608 429.945 153.088L429.981 158.812H429.693C429.093 156.604 428.145 155.056 426.849 154.168C425.553 153.28 424.017 152.836 422.241 152.836C420.489 152.836 419.025 153.244 417.849 154.06C416.697 154.876 415.821 156.016 415.221 157.48C414.645 158.944 414.357 160.66 414.357 162.628C414.357 164.62 414.645 166.348 415.221 167.812C415.821 169.276 416.685 170.416 417.813 171.232C418.941 172.048 420.297 172.48 421.881 172.528C423.585 172.528 424.989 172.264 426.093 171.736C427.221 171.208 428.109 170.356 428.757 169.18C429.429 168.004 429.909 166.432 430.197 164.464H430.485ZM441.883 151.9V173.5H436.699V151.9H441.883ZM436.807 171.232V173.5H434.179V173.14C434.179 173.14 434.251 173.14 434.395 173.14C434.539 173.14 434.623 173.14 434.647 173.14C435.199 173.14 435.679 172.96 436.087 172.6C436.495 172.216 436.699 171.76 436.699 171.232H436.807ZM441.811 171.232H441.883C441.907 171.76 442.111 172.216 442.495 172.6C442.903 172.96 443.395 173.14 443.971 173.14C443.971 173.14 444.031 173.14 444.151 173.14C444.295 173.14 444.379 173.14 444.403 173.14V173.5H441.811V171.232ZM441.811 154.168V151.9H444.403L444.367 152.26C444.367 152.26 444.307 152.26 444.187 152.26C444.067 152.26 443.995 152.26 443.971 152.26C443.395 152.26 442.903 152.44 442.495 152.8C442.111 153.16 441.907 153.616 441.883 154.168H441.811ZM436.807 154.168H436.699C436.699 153.616 436.495 153.16 436.087 152.8C435.679 152.44 435.187 152.26 434.611 152.26C434.611 152.26 434.539 152.26 434.395 152.26C434.251 152.26 434.179 152.26 434.179 152.26V151.9H436.807V154.168ZM457.815 150.928L468.471 173.32H462.387L455.691 157.516L457.815 150.928ZM451.047 171.124C450.783 171.772 450.819 172.276 451.155 172.636C451.491 172.972 451.863 173.14 452.271 173.14H452.559V173.5H445.359V173.14C445.359 173.14 445.407 173.14 445.503 173.14C445.599 173.14 445.647 173.14 445.647 173.14C446.127 173.14 446.631 172.996 447.159 172.708C447.687 172.396 448.119 171.868 448.455 171.124H451.047ZM457.815 150.928L457.887 155.248L450.075 173.392H447.411L455.835 155.284C455.883 155.14 455.991 154.888 456.159 154.528C456.327 154.144 456.507 153.724 456.699 153.268C456.891 152.788 457.071 152.344 457.239 151.936C457.407 151.504 457.503 151.168 457.527 150.928H457.815ZM460.947 166.444V167.848H451.767V166.444H460.947ZM461.487 171.124H467.427C467.787 171.868 468.231 172.396 468.759 172.708C469.287 172.996 469.791 173.14 470.271 173.14C470.271 173.14 470.319 173.14 470.415 173.14C470.511 173.14 470.559 173.14 470.559 173.14V173.5H459.975V173.14H460.263C460.671 173.14 461.043 172.972 461.379 172.636C461.715 172.276 461.751 171.772 461.487 171.124ZM483.575 151.9C486.143 151.9 488.351 152.332 490.199 153.196C492.047 154.036 493.463 155.272 494.447 156.904C495.431 158.512 495.923 160.444 495.923 162.7C495.923 164.956 495.431 166.888 494.447 168.496C493.463 170.104 492.047 171.34 490.199 172.204C488.351 173.068 486.143 173.5 483.575 173.5H475.583L475.511 172.06C477.335 172.06 478.799 172.06 479.903 172.06C481.031 172.06 481.847 172.06 482.351 172.06C482.879 172.06 483.143 172.06 483.143 172.06C485.399 172.06 487.175 171.232 488.471 169.576C489.767 167.92 490.415 165.628 490.415 162.7C490.415 159.772 489.767 157.48 488.471 155.824C487.175 154.144 485.399 153.304 483.143 153.304C483.143 153.304 482.879 153.304 482.351 153.304C481.823 153.304 480.971 153.304 479.795 153.304C478.619 153.304 477.071 153.304 475.151 153.304V151.9H483.575ZM479.075 151.9V173.5H473.891V151.9H479.075ZM473.999 171.196V173.5H471.407V173.14C471.407 173.14 471.479 173.14 471.623 173.14C471.767 173.14 471.851 173.14 471.875 173.14C472.427 173.14 472.895 172.948 473.279 172.564C473.687 172.18 473.891 171.724 473.891 171.196H473.999ZM473.963 154.168H473.891C473.867 153.616 473.651 153.16 473.243 152.8C472.859 152.44 472.391 152.26 471.839 152.26C471.839 152.26 471.767 152.26 471.623 152.26C471.479 152.26 471.407 152.26 471.407 152.26V151.9H473.963V154.168ZM512.259 151.432C514.179 151.432 515.919 151.696 517.479 152.224C519.039 152.728 520.383 153.472 521.511 154.456C522.639 155.44 523.503 156.628 524.103 158.02C524.727 159.412 525.039 160.984 525.039 162.736C525.039 164.464 524.727 166.024 524.103 167.416C523.503 168.784 522.639 169.96 521.511 170.944C520.383 171.928 519.039 172.684 517.479 173.212C515.919 173.716 514.179 173.968 512.259 173.968C510.363 173.968 508.635 173.716 507.075 173.212C505.515 172.684 504.171 171.928 503.043 170.944C501.915 169.96 501.051 168.784 500.451 167.416C499.851 166.024 499.551 164.464 499.551 162.736C499.551 160.984 499.851 159.412 500.451 158.02C501.051 156.628 501.915 155.44 503.043 154.456C504.171 153.472 505.515 152.728 507.075 152.224C508.635 151.696 510.363 151.432 512.259 151.432ZM512.259 172.564C513.723 172.564 514.995 172.168 516.075 171.376C517.179 170.56 518.019 169.42 518.595 167.956C519.195 166.492 519.495 164.752 519.495 162.736C519.495 160.696 519.195 158.944 518.595 157.48C518.019 155.992 517.179 154.852 516.075 154.06C514.995 153.244 513.723 152.836 512.259 152.836C510.819 152.836 509.559 153.244 508.479 154.06C507.399 154.852 506.559 155.992 505.959 157.48C505.359 158.944 505.059 160.696 505.059 162.736C505.059 164.752 505.359 166.492 505.959 167.956C506.559 169.42 507.399 170.56 508.479 171.376C509.559 172.168 510.819 172.564 512.259 172.564ZM535.669 151.432C536.149 151.432 536.725 151.456 537.397 151.504C538.093 151.552 538.777 151.612 539.449 151.684C540.121 151.732 540.709 151.804 541.213 151.9C541.741 151.972 542.101 152.044 542.293 152.116L541.825 156.508H541.501C541.501 155.404 541.117 154.528 540.349 153.88C539.581 153.232 538.477 152.908 537.037 152.908C535.885 152.908 534.949 153.16 534.229 153.664C533.533 154.168 533.161 154.84 533.113 155.68C533.065 156.112 533.137 156.508 533.329 156.868C533.545 157.204 533.833 157.504 534.193 157.768C534.577 158.032 534.997 158.296 535.453 158.56L541.105 162.052C542.065 162.532 542.821 163.228 543.373 164.14C543.925 165.052 544.165 166.156 544.093 167.452C544.021 168.796 543.625 169.96 542.905 170.944C542.209 171.928 541.237 172.684 539.989 173.212C538.765 173.716 537.313 173.968 535.633 173.968C534.601 173.968 533.641 173.884 532.753 173.716C531.865 173.548 531.097 173.32 530.449 173.032C529.825 172.744 529.345 172.42 529.009 172.06C528.817 171.58 528.733 171.004 528.757 170.332C528.781 169.636 528.889 168.952 529.081 168.28C529.273 167.584 529.513 167.008 529.801 166.552H530.089C530.017 167.632 530.209 168.628 530.665 169.54C531.145 170.452 531.841 171.184 532.753 171.736C533.665 172.264 534.757 172.528 536.029 172.528C537.421 172.528 538.465 172.204 539.161 171.556C539.857 170.908 540.205 170.152 540.205 169.288C540.205 168.64 539.989 168.064 539.557 167.56C539.149 167.032 538.465 166.516 537.505 166.012L532.393 162.772C531.193 162.148 530.317 161.32 529.765 160.288C529.237 159.256 529.045 158.128 529.189 156.904C529.309 155.752 529.645 154.768 530.197 153.952C530.773 153.136 531.529 152.512 532.465 152.08C533.401 151.648 534.469 151.432 535.669 151.432ZM542.293 151.756L542.257 152.404H538.405V151.756H542.293Z" fill="white"/>
<path d="M285.332 193.299V209.5H281.443V193.299H285.332ZM291.65 208.42L292.271 209.5H285.278V208.42H291.65ZM290.732 200.94V202.02H285.278V200.94H290.732ZM291.947 193.299V194.379H285.278V193.299H291.947ZM293.378 204.532L292.352 209.5H287.681L288.518 208.42C289.292 208.42 289.976 208.267 290.57 207.961C291.182 207.637 291.704 207.187 292.136 206.611C292.568 206.017 292.901 205.324 293.135 204.532H293.378ZM290.732 201.966V204.343H290.462V204.127C290.462 203.532 290.273 203.037 289.895 202.641C289.535 202.245 289.04 202.038 288.41 202.02V201.966H290.732ZM290.732 198.618V200.994H288.41V200.94C289.04 200.922 289.535 200.715 289.895 200.319C290.273 199.905 290.462 199.401 290.462 198.807V198.618H290.732ZM291.947 194.325V197.187H291.677V196.944C291.677 196.152 291.461 195.531 291.029 195.081C290.615 194.631 290.012 194.397 289.22 194.379V194.325H291.947ZM291.947 192.894V193.542L289.112 193.299C289.634 193.299 290.183 193.254 290.759 193.164C291.335 193.056 291.731 192.966 291.947 192.894ZM281.497 207.799L281.632 209.5H279.634V209.23C279.634 209.23 279.688 209.23 279.796 209.23C279.904 209.23 279.967 209.23 279.985 209.23C280.381 209.23 280.714 209.095 280.984 208.825C281.272 208.537 281.425 208.195 281.443 207.799H281.497ZM281.497 195H281.443C281.425 194.586 281.272 194.244 280.984 193.974C280.714 193.704 280.381 193.569 279.985 193.569C279.967 193.569 279.904 193.569 279.796 193.569C279.688 193.569 279.634 193.569 279.634 193.569V193.299H281.632L281.497 195ZM301.734 192.948C302.094 192.948 302.527 192.966 303.031 193.002C303.553 193.038 304.066 193.083 304.57 193.137C305.074 193.173 305.515 193.227 305.893 193.299C306.289 193.353 306.559 193.407 306.703 193.461L306.352 196.755H306.109C306.109 195.927 305.821 195.27 305.245 194.784C304.669 194.298 303.841 194.055 302.761 194.055C301.896 194.055 301.194 194.244 300.654 194.622C300.132 195 299.853 195.504 299.817 196.134C299.781 196.458 299.835 196.755 299.979 197.025C300.141 197.277 300.357 197.502 300.627 197.7C300.915 197.898 301.23 198.096 301.572 198.294L305.812 200.913C306.532 201.273 307.099 201.795 307.513 202.479C307.927 203.163 308.107 203.992 308.053 204.964C307.999 205.972 307.702 206.845 307.162 207.583C306.64 208.321 305.911 208.888 304.975 209.284C304.057 209.662 302.968 209.851 301.707 209.851C300.933 209.851 300.213 209.788 299.547 209.662C298.881 209.536 298.305 209.365 297.819 209.149C297.351 208.933 296.991 208.69 296.739 208.42C296.595 208.06 296.532 207.628 296.55 207.124C296.568 206.602 296.649 206.089 296.793 205.585C296.937 205.063 297.117 204.631 297.333 204.289H297.549C297.495 205.099 297.639 205.846 297.981 206.53C298.341 207.214 298.863 207.763 299.547 208.177C300.231 208.573 301.05 208.771 302.004 208.771C303.049 208.771 303.832 208.528 304.354 208.042C304.876 207.556 305.137 206.989 305.137 206.341C305.137 205.855 304.975 205.423 304.651 205.045C304.345 204.649 303.832 204.262 303.112 203.883L299.277 201.453C298.377 200.985 297.72 200.364 297.306 199.59C296.91 198.816 296.766 197.97 296.874 197.052C296.964 196.188 297.216 195.45 297.63 194.838C298.062 194.226 298.629 193.758 299.331 193.434C300.033 193.11 300.834 192.948 301.734 192.948ZM306.703 193.191L306.676 193.677H303.787V193.191H306.703ZM320.283 193.38V209.5H316.368V193.38H320.283ZM326.17 193.272V194.352H310.508V193.272H326.17ZM326.17 194.271V197.133H325.873V196.89C325.891 196.116 325.675 195.504 325.225 195.054C324.793 194.604 324.19 194.37 323.415 194.352V194.271H326.17ZM326.17 192.867V193.542L323.307 193.272C323.649 193.272 324.019 193.254 324.415 193.218C324.811 193.164 325.171 193.11 325.495 193.056C325.819 192.984 326.044 192.921 326.17 192.867ZM316.422 207.799V209.5H314.613V209.23C314.613 209.23 314.658 209.23 314.748 209.23C314.856 209.23 314.91 209.23 314.91 209.23C315.306 209.23 315.639 209.095 315.909 208.825C316.197 208.537 316.35 208.195 316.368 207.799H316.422ZM320.202 207.799H320.283C320.283 208.195 320.427 208.537 320.715 208.825C321.003 209.095 321.354 209.23 321.768 209.23C321.768 209.23 321.813 209.23 321.903 209.23C322.011 209.23 322.065 209.23 322.065 209.23V209.5H320.202V207.799ZM313.263 194.271V194.352C312.47 194.37 311.858 194.604 311.426 195.054C311.012 195.504 310.805 196.116 310.805 196.89V197.133H310.508V194.271H313.263ZM310.508 192.867C310.67 192.903 310.904 192.957 311.21 193.029C311.534 193.101 311.885 193.164 312.263 193.218C312.66 193.254 313.02 193.272 313.344 193.272L310.508 193.542V192.867ZM334.149 193.299V203.478C334.149 205.135 334.527 206.431 335.283 207.367C336.057 208.303 337.128 208.771 338.496 208.771C339.918 208.771 341.016 208.33 341.79 207.448C342.582 206.566 342.988 205.342 343.006 203.775V193.299H344.788V203.613C344.788 205.54 344.194 207.061 343.006 208.177C341.835 209.293 340.17 209.851 338.01 209.851C335.4 209.851 333.456 209.302 332.178 208.204C330.899 207.088 330.26 205.567 330.26 203.64V193.299H334.149ZM330.314 193.299V194.703H330.26C330.242 194.361 330.116 194.082 329.882 193.866C329.648 193.65 329.36 193.542 329.018 193.542C329.018 193.542 328.955 193.542 328.829 193.542C328.703 193.542 328.64 193.542 328.64 193.542V193.299H330.314ZM335.742 193.299V193.542C335.742 193.542 335.679 193.542 335.553 193.542C335.427 193.542 335.364 193.542 335.364 193.542C335.022 193.542 334.734 193.65 334.5 193.866C334.266 194.082 334.149 194.361 334.149 194.703H334.095V193.299H335.742ZM343.06 193.299V194.703H343.006C342.988 194.361 342.862 194.082 342.627 193.866C342.393 193.65 342.114 193.542 341.79 193.542C341.79 193.542 341.727 193.542 341.601 193.542C341.475 193.542 341.412 193.542 341.412 193.542V193.299H343.06ZM346.381 193.299V193.542C346.381 193.542 346.318 193.542 346.192 193.542C346.084 193.542 346.03 193.542 346.03 193.542C345.688 193.542 345.391 193.65 345.139 193.866C344.905 194.082 344.788 194.361 344.788 194.703H344.734V193.299H346.381ZM358.318 193.299C360.244 193.299 361.9 193.623 363.286 194.271C364.673 194.901 365.735 195.828 366.473 197.052C367.211 198.258 367.58 199.707 367.58 201.399C367.58 203.091 367.211 204.541 366.473 205.747C365.735 206.953 364.673 207.88 363.286 208.528C361.9 209.176 360.244 209.5 358.318 209.5H352.323L352.269 208.42C353.638 208.42 354.736 208.42 355.564 208.42C356.41 208.42 357.022 208.42 357.4 208.42C357.796 208.42 357.994 208.42 357.994 208.42C359.686 208.42 361.018 207.799 361.99 206.557C362.962 205.315 363.448 203.595 363.448 201.399C363.448 199.203 362.962 197.484 361.99 196.242C361.018 194.982 359.686 194.352 357.994 194.352C357.994 194.352 357.796 194.352 357.4 194.352C357.004 194.352 356.365 194.352 355.483 194.352C354.601 194.352 353.44 194.352 351.999 194.352V193.299H358.318ZM354.943 193.299V209.5H351.054V193.299H354.943ZM351.135 207.772V209.5H349.191V209.23C349.191 209.23 349.245 209.23 349.353 209.23C349.461 209.23 349.524 209.23 349.542 209.23C349.956 209.23 350.307 209.086 350.595 208.798C350.901 208.51 351.054 208.168 351.054 207.772H351.135ZM351.108 195H351.054C351.036 194.586 350.874 194.244 350.568 193.974C350.28 193.704 349.929 193.569 349.515 193.569C349.515 193.569 349.461 193.569 349.353 193.569C349.245 193.569 349.191 193.569 349.191 193.569V193.299H351.108V195ZM376.229 193.299V209.5H372.341V193.299H376.229ZM372.422 207.799V209.5H370.451V209.23C370.451 209.23 370.505 209.23 370.613 209.23C370.721 209.23 370.784 209.23 370.802 209.23C371.216 209.23 371.576 209.095 371.882 208.825C372.188 208.537 372.341 208.195 372.341 207.799H372.422ZM376.175 207.799H376.229C376.247 208.195 376.4 208.537 376.689 208.825C376.995 209.095 377.364 209.23 377.796 209.23C377.796 209.23 377.841 209.23 377.931 209.23C378.039 209.23 378.102 209.23 378.12 209.23V209.5H376.175V207.799ZM376.175 195V193.299H378.12L378.093 193.569C378.093 193.569 378.048 193.569 377.958 193.569C377.868 193.569 377.814 193.569 377.796 193.569C377.364 193.569 376.995 193.704 376.689 193.974C376.4 194.244 376.247 194.586 376.229 195H376.175ZM372.422 195H372.341C372.341 194.586 372.188 194.244 371.882 193.974C371.576 193.704 371.207 193.569 370.775 193.569C370.775 193.569 370.721 193.569 370.613 193.569C370.505 193.569 370.451 193.569 370.451 193.569V193.299H372.422V195ZM390.616 192.948C392.056 192.948 393.361 193.146 394.531 193.542C395.701 193.92 396.709 194.478 397.555 195.216C398.401 195.954 399.049 196.845 399.499 197.889C399.967 198.933 400.201 200.112 400.201 201.426C400.201 202.722 399.967 203.892 399.499 204.937C399.049 205.963 398.401 206.845 397.555 207.583C396.709 208.321 395.701 208.888 394.531 209.284C393.361 209.662 392.056 209.851 390.616 209.851C389.194 209.851 387.897 209.662 386.727 209.284C385.557 208.888 384.549 208.321 383.703 207.583C382.857 206.845 382.209 205.963 381.759 204.937C381.309 203.892 381.084 202.722 381.084 201.426C381.084 200.112 381.309 198.933 381.759 197.889C382.209 196.845 382.857 195.954 383.703 195.216C384.549 194.478 385.557 193.92 386.727 193.542C387.897 193.146 389.194 192.948 390.616 192.948ZM390.616 208.798C391.714 208.798 392.668 208.501 393.478 207.907C394.306 207.295 394.936 206.44 395.368 205.342C395.818 204.244 396.043 202.938 396.043 201.426C396.043 199.896 395.818 198.582 395.368 197.484C394.936 196.368 394.306 195.513 393.478 194.919C392.668 194.307 391.714 194.001 390.616 194.001C389.536 194.001 388.59 194.307 387.78 194.919C386.97 195.513 386.34 196.368 385.89 197.484C385.44 198.582 385.215 199.896 385.215 201.426C385.215 202.938 385.44 204.244 385.89 205.342C386.34 206.44 386.97 207.295 387.78 207.907C388.59 208.501 389.536 208.798 390.616 208.798ZM417.195 193.299V208.663C417.195 209.545 417.006 210.346 416.628 211.066C416.25 211.804 415.746 212.416 415.116 212.902C414.486 213.406 413.775 213.766 412.983 213.982C412.191 214.216 411.363 214.288 410.499 214.198V213.955C411.201 213.649 411.75 213.217 412.146 212.659C412.56 212.101 412.848 211.462 413.01 210.742C413.19 210.04 413.28 209.329 413.28 208.609V193.299H417.195ZM413.388 193.299V195.054H413.307C413.289 194.64 413.127 194.289 412.821 194.001C412.533 193.713 412.164 193.569 411.714 193.569H411.417L411.39 193.299H413.388ZM419.085 193.299V193.569H418.761C418.329 193.569 417.96 193.713 417.654 194.001C417.366 194.289 417.213 194.64 417.195 195.054H417.114V193.299H419.085ZM427.291 193.299V203.478C427.291 205.135 427.669 206.431 428.425 207.367C429.199 208.303 430.271 208.771 431.639 208.771C433.061 208.771 434.159 208.33 434.933 207.448C435.725 206.566 436.13 205.342 436.148 203.775V193.299H437.93V203.613C437.93 205.54 437.336 207.061 436.148 208.177C434.978 209.293 433.313 209.851 431.153 209.851C428.542 209.851 426.598 209.302 425.32 208.204C424.042 207.088 423.403 205.567 423.403 203.64V193.299H427.291ZM423.457 193.299V194.703H423.403C423.385 194.361 423.259 194.082 423.025 193.866C422.791 193.65 422.503 193.542 422.161 193.542C422.161 193.542 422.098 193.542 421.972 193.542C421.846 193.542 421.783 193.542 421.783 193.542V193.299H423.457ZM428.884 193.299V193.542C428.884 193.542 428.821 193.542 428.695 193.542C428.569 193.542 428.506 193.542 428.506 193.542C428.164 193.542 427.876 193.65 427.642 193.866C427.408 194.082 427.291 194.361 427.291 194.703H427.237V193.299H428.884ZM436.202 193.299V194.703H436.148C436.13 194.361 436.004 194.082 435.77 193.866C435.536 193.65 435.257 193.542 434.933 193.542C434.933 193.542 434.87 193.542 434.744 193.542C434.618 193.542 434.555 193.542 434.555 193.542V193.299H436.202ZM439.523 193.299V193.542C439.523 193.542 439.46 193.542 439.334 193.542C439.226 193.542 439.172 193.542 439.172 193.542C438.83 193.542 438.533 193.65 438.281 193.866C438.047 194.082 437.93 194.361 437.93 194.703H437.876V193.299H439.523ZM447.95 193.299H450.866C451.605 193.299 452.325 193.38 453.027 193.542C453.729 193.686 454.359 193.929 454.917 194.271C455.475 194.595 455.916 195.045 456.24 195.621C456.582 196.179 456.753 196.881 456.753 197.727C456.753 198.357 456.618 198.987 456.348 199.617C456.096 200.229 455.691 200.76 455.133 201.21C454.593 201.66 453.882 201.957 453 202.101C453.522 202.263 454.017 202.578 454.485 203.046C454.971 203.514 455.349 203.956 455.619 204.37C455.691 204.514 455.817 204.748 455.997 205.072C456.177 205.378 456.402 205.738 456.672 206.152C456.96 206.548 457.257 206.962 457.563 207.394C457.923 207.88 458.238 208.258 458.508 208.528C458.778 208.78 459.057 208.96 459.345 209.068C459.633 209.176 459.966 209.23 460.344 209.23V209.5H458.076C457.104 209.5 456.276 209.428 455.592 209.284C454.926 209.14 454.341 208.879 453.837 208.501C453.351 208.105 452.901 207.574 452.487 206.908C452.325 206.674 452.154 206.395 451.974 206.071C451.794 205.729 451.614 205.387 451.434 205.045C451.253 204.703 451.091 204.37 450.947 204.046C450.821 203.721 450.731 203.451 450.677 203.235C450.443 202.659 450.173 202.245 449.867 201.993C449.579 201.723 449.309 201.588 449.057 201.588V201.345C449.057 201.345 449.12 201.345 449.246 201.345C449.372 201.345 449.534 201.345 449.732 201.345C450.11 201.345 450.479 201.282 450.839 201.156C451.217 201.012 451.56 200.751 451.866 200.373C452.172 199.977 452.397 199.401 452.541 198.645C452.577 198.537 452.604 198.384 452.622 198.186C452.658 197.988 452.667 197.763 452.649 197.511C452.613 196.845 452.487 196.314 452.271 195.918C452.073 195.504 451.821 195.198 451.515 195C451.208 194.784 450.893 194.64 450.569 194.568C450.263 194.478 449.993 194.433 449.759 194.433C449.417 194.415 449.102 194.415 448.814 194.433C448.544 194.433 448.337 194.424 448.193 194.406C448.175 194.406 448.148 194.316 448.112 194.136C448.076 193.938 448.04 193.749 448.004 193.569C447.968 193.389 447.95 193.299 447.95 193.299ZM448.22 193.299V209.5H444.305V193.299H448.22ZM444.386 207.799L444.494 209.5H442.55V209.23C442.568 209.23 442.613 209.23 442.685 209.23C442.775 209.23 442.838 209.23 442.874 209.23C443.27 209.23 443.603 209.095 443.873 208.825C444.161 208.537 444.314 208.195 444.332 207.799H444.386ZM444.386 194.973H444.332C444.314 194.559 444.161 194.226 443.873 193.974C443.603 193.704 443.279 193.569 442.901 193.569C442.847 193.569 442.775 193.569 442.685 193.569C442.613 193.569 442.568 193.569 442.55 193.569V193.299H444.494L444.386 194.973ZM448.166 207.799H448.22C448.22 208.249 448.373 208.6 448.679 208.852C449.003 209.104 449.345 209.23 449.705 209.23C449.705 209.23 449.741 209.23 449.813 209.23C449.885 209.23 449.939 209.23 449.975 209.23V209.5H448.031L448.166 207.799ZM467.262 193.299V209.5H463.374V193.299H467.262ZM463.455 207.799V209.5H461.484V209.23C461.484 209.23 461.538 209.23 461.646 209.23C461.754 209.23 461.817 209.23 461.835 209.23C462.249 209.23 462.609 209.095 462.915 208.825C463.221 208.537 463.374 208.195 463.374 207.799H463.455ZM467.208 207.799H467.262C467.28 208.195 467.433 208.537 467.721 208.825C468.027 209.095 468.397 209.23 468.829 209.23C468.829 209.23 468.874 209.23 468.964 209.23C469.072 209.23 469.135 209.23 469.153 209.23V209.5H467.208V207.799ZM467.208 195V193.299H469.153L469.126 193.569C469.126 193.569 469.081 193.569 468.991 193.569C468.901 193.569 468.847 193.569 468.829 193.569C468.397 193.569 468.027 193.704 467.721 193.974C467.433 194.244 467.28 194.586 467.262 195H467.208ZM463.455 195H463.374C463.374 194.586 463.221 194.244 462.915 193.974C462.609 193.704 462.24 193.569 461.808 193.569C461.808 193.569 461.754 193.569 461.646 193.569C461.538 193.569 461.484 193.569 461.484 193.569V193.299H463.455V195ZM481.269 193.299C483.195 193.299 484.851 193.623 486.237 194.271C487.623 194.901 488.685 195.828 489.423 197.052C490.161 198.258 490.53 199.707 490.53 201.399C490.53 203.091 490.161 204.541 489.423 205.747C488.685 206.953 487.623 207.88 486.237 208.528C484.851 209.176 483.195 209.5 481.269 209.5H475.274L475.22 208.42C476.588 208.42 477.686 208.42 478.514 208.42C479.36 208.42 479.973 208.42 480.351 208.42C480.747 208.42 480.945 208.42 480.945 208.42C482.637 208.42 483.969 207.799 484.941 206.557C485.913 205.315 486.399 203.595 486.399 201.399C486.399 199.203 485.913 197.484 484.941 196.242C483.969 194.982 482.637 194.352 480.945 194.352C480.945 194.352 480.747 194.352 480.351 194.352C479.955 194.352 479.315 194.352 478.433 194.352C477.551 194.352 476.39 194.352 474.95 194.352V193.299H481.269ZM477.893 193.299V209.5H474.005V193.299H477.893ZM474.086 207.772V209.5H472.142V209.23C472.142 209.23 472.196 209.23 472.304 209.23C472.412 209.23 472.475 209.23 472.493 209.23C472.907 209.23 473.258 209.086 473.546 208.798C473.852 208.51 474.005 208.168 474.005 207.772H474.086ZM474.059 195H474.005C473.987 194.586 473.825 194.244 473.519 193.974C473.231 193.704 472.88 193.569 472.466 193.569C472.466 193.569 472.412 193.569 472.304 193.569C472.196 193.569 472.142 193.569 472.142 193.569V193.299H474.059V195ZM499.18 193.299V209.5H495.292V193.299H499.18ZM495.373 207.799V209.5H493.402V209.23C493.402 209.23 493.456 209.23 493.564 209.23C493.672 209.23 493.735 209.23 493.753 209.23C494.167 209.23 494.527 209.095 494.833 208.825C495.139 208.537 495.292 208.195 495.292 207.799H495.373ZM499.126 207.799H499.18C499.198 208.195 499.351 208.537 499.639 208.825C499.945 209.095 500.314 209.23 500.746 209.23C500.746 209.23 500.791 209.23 500.881 209.23C500.989 209.23 501.052 209.23 501.07 209.23V209.5H499.126V207.799ZM499.126 195V193.299H501.07L501.043 193.569C501.043 193.569 500.998 193.569 500.908 193.569C500.818 193.569 500.764 193.569 500.746 193.569C500.314 193.569 499.945 193.704 499.639 193.974C499.351 194.244 499.198 194.586 499.18 195H499.126ZM495.373 195H495.292C495.292 194.586 495.139 194.244 494.833 193.974C494.527 193.704 494.158 193.569 493.726 193.569C493.726 193.569 493.672 193.569 493.564 193.569C493.456 193.569 493.402 193.569 493.402 193.569V193.299H495.373V195ZM520.209 202.722L520.506 206.8C520.164 207.376 519.687 207.898 519.075 208.366C518.463 208.816 517.716 209.176 516.834 209.446C515.951 209.716 514.925 209.851 513.755 209.851C511.739 209.833 510.002 209.491 508.544 208.825C507.086 208.159 505.961 207.205 505.169 205.963C504.394 204.703 504.007 203.172 504.007 201.372C504.007 199.608 504.394 198.105 505.169 196.863C505.943 195.603 507.059 194.64 508.517 193.974C509.975 193.29 511.721 192.948 513.755 192.948C514.979 192.948 516.114 193.065 517.158 193.299C518.22 193.533 519.102 193.83 519.804 194.19L519.831 198.483H519.615C519.165 196.827 518.454 195.666 517.482 195C516.51 194.334 515.357 194.001 514.025 194.001C512.711 194.001 511.613 194.307 510.731 194.919C509.867 195.531 509.21 196.386 508.76 197.484C508.328 198.582 508.112 199.869 508.112 201.345C508.112 202.839 508.328 204.136 508.76 205.234C509.21 206.332 509.858 207.187 510.704 207.799C511.55 208.411 512.567 208.735 513.755 208.771C515.033 208.771 516.087 208.573 516.915 208.177C517.761 207.781 518.427 207.142 518.913 206.26C519.417 205.378 519.777 204.199 519.993 202.722H520.209ZM533.771 192.948C535.211 192.948 536.516 193.146 537.686 193.542C538.856 193.92 539.864 194.478 540.71 195.216C541.556 195.954 542.204 196.845 542.654 197.889C543.122 198.933 543.356 200.112 543.356 201.426C543.356 202.722 543.122 203.892 542.654 204.937C542.204 205.963 541.556 206.845 540.71 207.583C539.864 208.321 538.856 208.888 537.686 209.284C536.516 209.662 535.211 209.851 533.771 209.851C532.348 209.851 531.052 209.662 529.882 209.284C528.712 208.888 527.704 208.321 526.858 207.583C526.012 206.845 525.364 205.963 524.914 204.937C524.464 203.892 524.239 202.722 524.239 201.426C524.239 200.112 524.464 198.933 524.914 197.889C525.364 196.845 526.012 195.954 526.858 195.216C527.704 194.478 528.712 193.92 529.882 193.542C531.052 193.146 532.348 192.948 533.771 192.948ZM533.771 208.798C534.869 208.798 535.823 208.501 536.633 207.907C537.461 207.295 538.091 206.44 538.523 205.342C538.973 204.244 539.198 202.938 539.198 201.426C539.198 199.896 538.973 198.582 538.523 197.484C538.091 196.368 537.461 195.513 536.633 194.919C535.823 194.307 534.869 194.001 533.771 194.001C532.691 194.001 531.745 194.307 530.935 194.919C530.125 195.513 529.495 196.368 529.045 197.484C528.595 198.582 528.37 199.896 528.37 201.426C528.37 202.938 528.595 204.244 529.045 205.342C529.495 206.44 530.125 207.295 530.935 207.907C531.745 208.501 532.691 208.798 533.771 208.798Z" fill="white"/>
<line x1="283.5" y1="181.5" x2="544.5" y2="181.5" stroke="white" stroke-width="2"/>
<line x1="283.5" y1="221.5" x2="544.5" y2="221.5" stroke="white" stroke-width="2"/>
<path d="M107.388 110.362L147.872 198.757H125.587L99.8363 134.256L107.388 110.362ZM80.7706 190.462C80.1103 192.113 79.9865 193.516 80.3992 194.672C80.8119 195.827 81.5134 196.735 82.5039 197.395C83.4943 197.973 84.4847 198.262 85.4751 198.262H86.5894V199.5H60.0955V198.262C60.0955 198.262 60.3019 198.262 60.7145 198.262C61.0447 198.262 61.2097 198.262 61.2097 198.262C63.1081 198.262 65.0476 197.684 67.0285 196.529C69.0919 195.291 70.7838 193.269 72.1044 190.462H80.7706ZM107.388 110.362L107.883 125.466L77.1803 199.129H68.1427L100.208 126.58C100.455 126.085 100.868 125.177 101.446 123.856C102.106 122.453 102.766 120.885 103.427 119.152C104.169 117.419 104.83 115.768 105.407 114.2C105.985 112.549 106.274 111.27 106.274 110.362H107.388ZM120.388 170.035V175.235H83.9895V170.035H120.388ZM122.245 190.462H143.91C145.313 193.269 147.005 195.291 148.986 196.529C150.967 197.684 152.907 198.262 154.805 198.262C154.805 198.262 154.97 198.262 155.3 198.262C155.63 198.262 155.795 198.262 155.795 198.262V199.5H116.426V198.262H117.54C119.191 198.262 120.635 197.602 121.873 196.281C123.111 194.878 123.235 192.938 122.245 190.462ZM235.224 163.35L236.338 184.644C234.522 187.697 232.087 190.462 229.033 192.938C225.98 195.415 222.183 197.437 217.644 199.005C213.104 200.49 207.739 201.233 201.549 201.233C191.48 201.151 182.649 199.335 175.055 195.786C167.545 192.154 161.726 186.996 157.599 180.311C153.472 173.625 151.409 165.537 151.409 156.045C151.409 146.801 153.431 138.837 157.475 132.151C161.52 125.383 167.297 120.184 174.808 116.552C182.401 112.92 191.439 111.105 201.921 111.105C208.523 111.105 214.425 111.765 219.624 113.085C224.907 114.406 229.322 116.015 232.871 117.914L232.995 139.084H231.881C229.652 130.913 226.021 125.094 220.986 121.628C215.952 118.079 210.05 116.304 203.282 116.304C196.68 116.304 191.026 117.914 186.321 121.133C181.617 124.352 177.985 128.891 175.427 134.751C172.868 140.611 171.589 147.627 171.589 155.798C171.589 163.969 172.786 171.025 175.179 176.968C177.655 182.91 181.122 187.532 185.579 190.834C190.118 194.135 195.442 195.868 201.549 196.034C207.904 196.034 213.269 195.002 217.644 192.938C222.018 190.875 225.526 187.45 228.167 182.663C230.89 177.876 232.913 171.438 234.233 163.35H235.224Z" fill="black"/>
</svg>
